<svg width="640" height="480" xmlns="http://www.w3.org/2000/svg" xmlns:svg="http://www.w3.org/2000/svg">
 <!-- Created with SVG-edit - http://svg-edit.googlecode.com/ -->
 <g>
  <title>Layer 1</title>
  <circle fill="#e5e5e5" stroke="#000000" stroke-width="5" cx="253" cy="120" r="54.3783" id="svg_2"/>
  <circle fill="#e5e5e5" stroke="#000000" stroke-width="5" cx="408" cy="117" r="51.623642" id="svg_3"/>
  <path fill="#ff0000" stroke="#000000" stroke-width="5" stroke-dasharray="null" stroke-linejoin="null" stroke-linecap="null" id="svg_1" d="m255.33333,104.33334c-0.87866,0 -1.66162,0.00981 -2.484,-0.28401c-0.88208,-0.31514 -1.7574,-0.68739 -2.61599,-0.71599c-0.89951,-0.02996 -1.84734,0 -2.60451,0c-0.9315,0 -1.77817,0 -2.72617,0c-0.92649,0 -1.7731,-0.08212 -2.66932,0.00016c-0.91146,0.08368 -1.5573,0.55713 -2.19551,1.29983c-0.64522,0.75086 -0.82578,1.4783 -1.27916,2.30001c-0.42519,0.7706 -0.64684,1.62149 -1.22667,2.20133c-0.67783,0.67783 -1.19867,1.42016 -1.19867,2.29867c0,0.9 0,1.69999 0,2.61466c0,0.896 0,1.7645 0,2.72133c0,0.8595 0,1.73334 0,2.56401c0,0.94933 -0.25023,1.88593 0.00017,2.75716c0.22125,0.76982 0.67677,1.64914 1.3525,2.18567c0.59989,0.47631 1.00403,1.21749 1.74733,1.81433c0.60195,0.48333 1.37291,0.90884 1.87467,1.63216c0.45019,0.64901 1.4948,0.37766 2.32083,0.61517c0.76787,0.22079 1.14581,1.15131 1.75717,1.64284c0.64453,0.51819 1.64884,0.40715 2.44733,0.85266c0.797,0.44467 1.30208,1.16998 2,1.47917c0.856,0.37921 1.7955,0.02083 2.72151,0.02083c0.87849,0 1.77849,0 2.57849,0c0.91467,0 1.81067,0 2.67917,0c0.95683,0 1.81633,0 2.74234,0c0.87833,0 1.77849,0 2.57984,0c0.89866,0 1.94894,0.16107 2.55133,-0.35716c0.68983,-0.59345 0.64732,-1.64284 0.64732,-2.44417c0,-0.91333 0.43601,-1.63467 1.09984,-2.2985c0.61484,-0.61483 1.09592,-1.35707 1.51083,-2.0855c0.46128,-0.8098 0.98787,-1.40544 1.68483,-2.11016c0.64598,-0.65318 0.74787,-1.41707 1.2045,-2.18367c0.48547,-0.81501 0.5,-1.72084 0.5,-2.62084c0,-0.89999 0,-1.73333 0,-2.60983c0,-0.8075 0.17572,-1.88171 -0.35716,-2.58566c-0.56993,-0.75287 -1.58194,-0.91973 -1.64284,-1.80434c-0.0582,-0.8455 -0.21724,-1.62767 -1,-2.06683c-0.70001,-0.39274 -1.17749,-1.29788 -2,-1.66667c-0.81593,-0.36584 -1.05309,-1.02304 -2,-1.16666c-0.8239,-0.12496 -1.71217,0.39359 -2.56399,-0.036c-0.6988,-0.35243 -1.23734,-0.96334 -2.13601,-0.964c-0.89999,-0.00067 -1.77916,0 -2.73599,0l-0.85951,0l-0.87116,-0.16667l-0.54933,-0.54934"/>
  <path fill="none" stroke="#000000" stroke-width="5" stroke-dasharray="null" stroke-linejoin="null" stroke-linecap="null" id="svg_4" d="m246.33333,117.33334c0.02084,-1 0.80153,-1.01834 1.71467,-1c0.89655,0.01799 1.56815,0.60847 2.452,1c0.77701,0.3442 1.48702,0.79515 2.33333,0.97916c0.88,0.19133 2.64644,0.53244 2.03866,0.97417c-0.60401,0.439 -0.53866,-1.47417 -0.53866,-2.34267c0,-0.896 -0.16551,-1.91348 0.35267,-2.558c0.49154,-0.61137 1.22196,-1.04733 2.08333,-1.05267c0.86399,-0.00534 1.76401,0 2.66384,0c0.9255,0 1.45306,0.23304 2.06683,0.83333c0.60573,0.59241 0.83333,0.968 0.83333,1.86667l0,0.9l0,0.964l0,0.872"/>
  <path fill="#ff0000" stroke="#000000" stroke-width="5" stroke-dasharray="null" stroke-linejoin="null" stroke-linecap="null" id="svg_6" d="m409.33334,98.33334c-1,0 -1.81884,0 -2.76934,0c-0.7515,0 -1.54801,0 -2.54401,0c-0.84,0 -1.92947,0 -2.78699,0c-0.71399,0 -1.669,0 -2.4205,0c-0.79651,0 -2.01749,0 -2.8175,0c-1.02567,0 -1.88495,-0.09639 -2.82834,0.16666c-0.68164,0.19006 -1.66986,0.65428 -2.33332,0.83334c-0.98913,0.26696 -1.70053,0.57051 -2.47851,1.09983c-0.74359,0.50592 -1.57916,0.83816 -2.04682,1.51083c-0.5025,0.72281 -1.29132,1.13439 -1.97467,1.72266c-0.64425,0.55462 -1.01754,1.48771 -1.40002,2.05201c-0.62946,0.92868 -0.91818,1.61219 -1.16397,2.36399c-0.29709,0.90874 -0.43066,1.8293 -0.43601,2.7715c-0.00546,0.96449 0,1.68984 0,2.67884c0,0.75866 0,1.80034 0,2.67233c0,0.73067 0,1.7235 0,2.47084c0,1.02116 -0.10705,1.96371 0.00132,2.85716c0.11157,0.9198 0.70205,1.50112 1.39868,2.2c0.59903,0.60097 1.164,1.164 1.93332,1.93333c0.51733,0.51734 1.00619,1.25666 1.88818,1.66684c0.82132,0.38197 1.18936,0.85147 1.80383,1.56383c0.52558,0.60929 1.62958,0.41483 2.46,0.72134c0.74578,0.27527 1.70956,0.82481 2.30401,1.104c0.71954,0.33792 1.79993,0.60532 2.62131,0.61066c0.91049,0.0059 1.74481,-0.18521 2.75601,0c0.78824,0.14436 1.28,0.96371 2.15466,1.00017c0.85334,0.03557 1.74747,0.36685 2.47733,0.71583c0.76382,0.36524 1.70135,0.284 2.60135,0.284c0.89999,0 1.80133,0 2.76666,0c0.66934,0 1.83334,0 2.612,0c0.888,0 1.74216,0.00008 2.63199,0c0.91052,-0.00009 1.80179,0.08868 2.52801,-0.42532c0.6677,-0.47258 1.66785,-0.71271 2.05066,-1.60001c0.30744,-0.71258 0.07068,-1.73352 0.71601,-2.27466c0.67587,-0.56676 1.26971,-1.32161 1.72,-2.1c0.41748,-0.72169 0.41452,-1.66027 0.66,-2.40134c0.30423,-0.91844 0.86762,-1.67841 0.91016,-2.48883c0.04602,-0.87663 0.00451,-1.7515 0.00451,-2.70983c0,-0.8 0.03061,-1.60062 -0.00451,-2.60001c-0.02817,-0.80123 -0.28647,-1.79603 -0.57016,-2.56399c-0.35001,-0.94751 -0.66675,-1.78638 -1.07266,-2.47884c-0.43897,-0.74885 -0.26136,-1.68534 -0.51935,-2.52383c-0.26065,-0.84714 -0.98505,-1.51383 -1.53333,-1.93867c-0.67578,-0.52363 -1.01062,-1.29839 -1.49865,-2.29333c-0.37348,-0.76138 -0.56656,-1.62346 -0.91117,-2.354c-0.46252,-0.98057 -1.08014,-1.46098 -1.89016,-2.08067c-0.57898,-0.44293 -1.42887,-0.88082 -2.19968,-1.488c-0.60303,-0.475 -1.06445,-1.041 -1.69049,-1.917c-0.52799,-0.73877 -1.40534,-0.76616 -2.08451,-1.187l-0.63601,-0.56399l-0.8685,-0.01067"/>
  <path fill="none" stroke="#000000" stroke-width="5" stroke-dasharray="null" stroke-linejoin="null" stroke-linecap="null" id="svg_7" d="m384.33334,115.33334c0.80134,0 1.71473,0.01049 2.61066,0c0.88953,-0.01043 1.64823,-0.42128 2.48917,-0.87867c0.74734,-0.40647 0.56827,-1.3882 1.12167,-2c0.63245,-0.6992 1.62857,-0.80152 1.7785,-1.64217c0.1525,-0.85507 0.56324,-1.39786 1.30451,-1.83633c0.92563,-0.54752 1.52487,-1.07901 2.15716,-1.28567c0.93927,-0.30698 1.76322,-0.33519 2.58567,-0.35267c1.03061,-0.0219 2.21094,-0.43122 2.83832,0.35717c0.60177,0.75623 0.11434,1.63834 0.11434,2.61684c0,0.82016 0,1.72149 0,2.62149c0,0.90001 0,1.87917 0,2.75717c0,0.8415 0,1.8095 0,2.64284c0,0.91466 -0.47378,1.86705 0.05716,2.64283c0.48255,0.70508 1.67203,0.24894 2.46018,0.44249c0.88605,0.2176 1.68194,0.87063 2.45331,0.91334c0.79611,0.04408 1.77887,0.02017 2.69601,0.00134c0.87656,-0.01801 1.33109,-0.7045 1.33334,-1.60001c0.00223,-0.87916 0,-1.836 0,-2.69549c0,-0.92601 -0.39447,-2.08607 0.284,-2.61918c0.69727,-0.54788 1.74866,-0.21096 2.31598,-0.69599c0.74191,-0.6343 1.37412,-1.37133 2.20136,-1.38933c0.91311,-0.01987 1.80932,0 2.67782,0l0.87351,0"/>
  <rect fill="#ff7f00" stroke-width="5" stroke-dasharray="null" stroke-linejoin="null" stroke-linecap="null" x="273.333339" y="156.333332" width="115.999994" height="177.666664" id="svg_8" stroke="#000000"/>
  <ellipse fill="#ff0000" stroke="#000000" stroke-width="5" stroke-dasharray="null" stroke-linejoin="null" stroke-linecap="null" cx="331.333333" cy="329.666665" id="svg_12" rx="57" ry="37"/>
  <path fill="#ffaaaa" stroke-width="5" stroke-dasharray="null" stroke-linejoin="null" stroke-linecap="null" id="svg_31" d="m209.77777,413.7778c1.40356,0.86309 2.09766,1.28579 2.8889,1.77777c0.69705,0.43341 1.36321,1.13137 1.91289,1.46487c1.01822,0.61777 1.88484,0.6955 2.66489,0.98136c0.82666,0.30294 1.62693,0.94061 2.22934,1.40441c0.66322,0.51062 1.40573,1.0535 2.2631,1.5698c0.44924,0.27054 1.39925,0.77948 1.888,1.02045c0.97066,0.47854 1.92606,0.90377 2.83911,1.26754c0.86156,0.34323 1.69847,0.63611 2.512,0.91202c0.80072,0.27158 1.61326,0.52402 2.44444,0.84442c0.90842,0.35019 1.39217,0.57355 1.89867,0.832c1.76654,0.90137 2.39688,1.32617 3.06933,1.74201c0.69298,0.42853 1.39052,0.87594 2.088,1.33001c0.69185,0.45041 1.3659,0.89692 2.63467,1.74222c0.58048,0.38672 1.12424,0.74662 1.62599,1.09198c0.90625,0.62378 1.33512,0.88452 2.00779,1.48224c1.13328,1.00699 1.48445,1.60355 1.85244,2.13687c0.736,1.06668 1.15067,1.60913 1.62845,2.13333c0.7424,0.81452 1.5547,1.59732 2.08354,2.13333c0.52359,0.5307 1.06537,1.03064 1.91291,2.13337c0.39492,0.51385 0.76321,1.32113 1.17332,1.90576c0.58512,0.8341 1.1729,1.24142 1.71556,1.87201c0.48145,0.55941 1.57021,0.41443 2.08533,1.03643c0.66744,0.80594 0.90404,1.62311 1.64978,1.96445c0.83548,0.38242 1.57913,1.09598 2.39822,1.20712c0.91903,0.1247 1.79645,0.012 2.56112,0.01423c1.03289,0.00299 1.60905,0.46664 2.19799,0.95465c0.7547,0.62536 1.57665,0.37567 2.59377,0.37866c0.91202,0.00268 1.81933,0 2.80911,0c0.77313,0 1.73248,0.00696 2.59357,0c0.87832,-0.00711 1.6225,0.05484 2.59732,-0.37866c0.6781,-0.30155 1.57812,-0.91651 2.51379,-0.95465c0.69385,-0.02829 1.76303,0.02893 2.43378,-0.01423c0.92435,-0.05947 1.86145,-0.50381 2.49356,-0.8489c0.90393,-0.4935 1.87244,-0.47022 2.6922,-0.47022c0.85669,0 1.84693,-0.00616 2.66669,0c0.94763,0.00711 1.51294,0.68253 2.38043,1.11112c0.67978,0.33584 1.33307,0.20678 2.19733,0.22043c1.19409,0.01886 1.95022,0.0018 2.98846,0.0018c0.84198,0 1.77268,0 2.49066,0c1.21244,0 1.904,0 2.63822,0c0.76623,0 1.55377,0 2.75177,0c0.79425,0 1.57245,-0.00006 2.324,0c1.38068,0.00012 2.0051,-0.09241 3.06067,0.0762c0.87018,0.13898 1.4346,0.78058 2.48401,1.14334c0.70783,0.24469 1.71024,0.11377 2.39822,0.11377c1.11112,0 1.97376,-0.05255 2.93332,0.00177c0.66977,0.0379 1.5514,0.64307 2.13333,0.95291c0.90314,0.48084 1.82224,0.37866 2.70047,0.37866c0.92087,0 1.974,-0.17737 2.63111,0.22754c0.84296,0.51941 1.09997,1.41205 1.44888,1.90933c0.76135,1.08506 1.22934,1.57734 1.87311,2.24402c0.71005,0.73529 1.42267,0.95246 2.4129,0.95246c0.81977,0 1.79044,0 2.53354,0c1.00955,0 1.80957,0 2.79978,0c0.81979,0 1.79046,0 2.53356,0c1.00956,0 1.80954,0 2.79999,0c0.80002,0 1.76178,0 2.49423,0c1.06488,0 1.72089,0 2.41956,0c1.39734,0 2.04089,0 2.95288,0c0.60358,0 1.8949,0 2.59757,0c0.708,0 1.71048,0.0307 2.77667,-0.0018c0.77966,-0.02378 1.7204,-0.29514 2.4071,-0.56534c0.75724,-0.29798 1.81439,-0.63993 2.61865,-0.7182c0.79737,-0.07758 1.86667,-0.04801 2.66669,-0.04801c0.79999,0 1.86667,0 2.66666,0c0.79999,0 1.86667,0 2.66665,0c0.80002,0 1.86646,0 2.65247,0c0.9671,0 1.944,0 2.79288,0c0.80355,0 1.54355,0 2.40356,0c1.328,0 2.03732,0 2.73599,0c1.23734,0 1.92932,0 2.74491,0c0.96466,0 2.03219,0 2.7182,0c0.75799,0 1.81823,0 2.59024,0c0.86755,0 2.00888,0 2.69687,0c0.93158,0 1.8649,0 2.66488,0c0.96112,0 2.02973,0.03244 2.68625,-0.01422c0.82526,-0.05865 1.51517,-0.87198 2.27487,-1.31912c0.71228,-0.41922 1.29032,-0.96561 2.26755,-1.33356c0.73129,-0.27536 1.39227,-0.81146 2.26111,-1.21933c0.79208,-0.37182 1.6608,0.06928 2.63644,-0.11978c0.77146,-0.14947 1.43378,-0.75183 2.36267,-1.1051c0.7985,-0.30368 1.84809,0.05081 2.52979,-0.27023c0.76804,-0.3617 1.16168,-1.26133 2.04779,-1.28531c0.97763,-0.02649 1.60773,-0.56922 2.26865,-0.95468c0.83749,-0.48844 1.71066,-0.49201 2.29266,-1.07312c0.77283,-0.77164 1.30557,-1.30555 1.97223,-1.9722c0.63888,-0.63892 1.3096,-1.09516 2.02777,-1.38892c0.87003,-0.35589 1.18332,-1.13327 1.72467,-1.89932c0.67084,-0.94931 1.26975,-1.62872 1.60001,-1.982c0.69204,-0.74029 1.06311,-1.11007 1.8511,-1.81778c0.78391,-0.70401 1.58841,-1.33572 2.36801,-1.91644c0.37079,-0.27618 1.09131,-0.75943 1.98401,-1.44c0.88318,-0.67331 1.58145,-1.11209 1.77777,-2.03177c0.17893,-0.83823 -0.10299,-1.66351 0.00598,-2.59045c0.11188,-0.95148 0.81653,-1.52079 1.16535,-2.4c0.30057,-0.75763 -0.09964,-1.99133 0.63223,-2.45712c0.75668,-0.48157 1.62061,-0.45459 2.39554,-0.84244c0.90863,-0.45474 1.54172,-1.13632 2.20267,-1.52179c0.83746,-0.48843 1.82055,-0.36783 2.53756,-0.37866c0.9419,-0.01422 1.9672,-0.4224 2.59156,-0.94043c0.45474,-0.37729 0.85519,-1.2692 1.91265,-1.72269c0.76554,-0.32831 1.73151,-0.38974 2.176,-1.07199c0.53528,-0.82159 0.98914,-1.57159 1.67645,-1.59644c1.06421,-0.03845 1.73645,-0.00241 2.46579,-0.09777c0.77957,-0.10196 1.98075,-0.47361 2.76557,-0.84446c0.78817,-0.37243 1.5036,-0.84567 2.58377,-1.28176c0.62503,-0.25235 1.4859,-0.26358 2.56534,-0.44468c0.78839,-0.13226 1.47134,-0.60577 2.2022,-0.86288c1.03656,-0.36466 1.85938,-0.40512 2.65467,-0.54044c1.07446,-0.18283 1.84555,-0.51471 2.59045,-0.79291c1.02027,-0.38104 1.80356,-0.46722 2.74289,-0.47021c0.93332,-0.00296 1.73334,0 2.65244,0c0.59201,0 -0.22428,-0.01144 -1.16266,-0.38046c-0.68189,-0.26816 -1.2034,-0.74256 -2.02311,-1.59177c-0.55206,-0.57193 -1.33306,-0.68054 -2.44268,-0.69443c-0.81437,-0.01019 -1.58512,0 -2.66843,0c-0.86112,0 -1.68869,0 -2.66669,0c-0.81244,0 -1.55572,0.01981 -2.66131,0c-0.79508,-0.01425 -1.46512,-0.58221 -1.54666,-1.53247c-0.07767,-0.90521 -0.01423,-1.71554 -0.01423,-2.73242c0,-0.84622 0.04361,-1.80371 -0.56713,-2.36801c-0.63114,-0.58316 -1.04932,-1.28412 -1.83466,-1.36533c-1.01148,-0.10458 -1.89356,-0.00177 -2.66666,-0.00177c-1.0169,0 -1.89441,0.03638 -2.66668,0c-1.02027,-0.04806 -1.36786,-0.79745 -1.68,-1.53247c-0.37396,-0.88061 -1.46005,-0.73529 -2.26089,-1.42932c-0.55414,-0.48022 -0.90634,-0.99643 -1.79065,-1.03845c-0.8027,-0.03815 -1.54111,-0.56369 -2.26666,-0.95444c-0.87793,-0.47278 -1.86667,-0.37866 -2.66669,-0.37866c-0.96109,0 -1.82221,0 -2.70044,0c-0.69598,0 -1.896,0 -2.56976,0c-0.97513,0 -1.896,0 -2.77423,0c-0.86112,0 -1.82578,0.00009 -2.64133,0c-0.97134,-0.00012 -1.59543,0.02078 -2.62802,-0.048c-0.71079,-0.04737 -1.73395,-0.21613 -2.62399,-0.51911c-0.78977,-0.26886 -1.80967,-0.70376 -2.58954,-0.76022c-0.95108,-0.06888 -1.96213,0.0155 -2.60956,-0.01199c-0.92807,-0.03943 -1.76416,-0.29544 -2.58222,-0.76023c-0.80892,-0.45962 -1.71936,-0.5671 -2.64001,-0.5671c-0.60199,0 -1.77087,0.31637 -2.51868,-0.05558c-0.8316,-0.41363 -0.69821,-1.47708 -0.7222,-2.46466c-0.01974,-0.81335 -0.61032,-1.39603 -1.55557,-1.70199c-0.66012,-0.21369 -1.32062,-0.61225 -2.41577,-0.94935c-0.80054,-0.24639 -1.73755,-0.44448 -2.21912,-1.1011c-0.60006,-0.81821 -1.10806,-1.31332 -1.64755,-2.02268c-0.47793,-0.62841 -0.09802,-1.70697 -0.16379,-2.638c-0.05691,-0.80578 -0.56796,-1.61084 -1.06665,-2.13333c-0.65008,-0.68109 -1.33157,-1.33334 -1.99221,-1.99398c-0.5589,-0.5589 -1.41556,-0.93934 -2.4058,-0.93934c-0.72399,0 -1.94036,0.5322 -2.51931,-0.096c-0.57257,-0.62128 0.01147,-1.83222 -0.77335,-2.34488c-0.71765,-0.46878 -1.92319,-0.45493 -2.54645,-0.92023c-0.75613,-0.56451 -1.20141,-1.26797 -1.98868,-1.5918c-1.01364,-0.41693 -1.70614,-0.34546 -2.37155,-0.36621c-1.22259,-0.03814 -2.10489,-0.01422 -3.00088,-0.01422c-0.85712,0 -1.77777,-0.2222 -2.46756,-0.56711c-0.77509,-0.38754 -1.67285,-0.76321 -2.47287,-0.76623c-0.7858,-0.00296 -1.1817,-0.48502 -1.72644,-1.17133c-0.44321,-0.55838 -1.59802,-0.16198 -2.55445,-0.16198c-0.80645,0 -1.94116,-0.39917 -2.55645,0.22219c-0.64469,0.65107 -0.80558,1.4213 -1.58335,1.77781c-0.65625,0.30081 -1.65381,0.42013 -2.61932,0.68087c-0.83539,0.22562 -1.45856,0.69367 -2.05066,0.92511c-1.07074,0.41855 -1.92502,0.66996 -2.85068,0.91312c-0.47787,0.12552 -1.44876,0.36981 -2.89599,0.59198c-0.45835,0.07037 -1.33329,0.16031 -2.13889,0.19446c-1.05337,0.04468 -2.13904,-0.08606 -2.85489,0.07577c-0.87069,0.19684 -1.47781,0.9093 -2.16177,1.55023c-0.6507,0.60978 -1.46106,0.98758 -2.41422,1.06846c-0.84927,0.07205 -1.0877,1.01116 -1.69778,1.33331c-0.78742,0.4158 -1.71198,0.37872 -2.28799,0.66669c-1.00956,0.50473 -1.80957,0.66665 -2.79981,0.66665c-0.81976,0 -1.68243,0 -2.38245,0c-1.02133,0 -1.94754,0 -2.97244,0c-0.67911,0 -1.60937,-0.04223 -2.51199,0.02777c-0.69126,0.05362 -1.66431,0.44675 -2.33689,0.91156c-0.76022,0.52539 -1.45892,0.95972 -2.35488,1.32733c-1.07071,0.43931 -1.92933,0.66883 -2.37601,0.79401c-0.90225,0.25284 -1.77683,0.48898 -2.93222,0.7171c-0.8345,0.16477 -1.582,0.21921 -2.53333,0.22223c-0.9331,0.00296 -1.7529,0.00012 -2.71466,0c-0.88513,-0.00012 -1.56354,-0.21957 -2.15555,-0.86313c-0.54425,-0.59161 -1.70239,-0.7413 -2.36355,-1.05154c-0.70856,-0.33249 -1.51865,-0.9111 -2.20514,-1.3909c-0.8067,-0.56381 -1.62778,-0.69144 -2.5611,-0.69443c-0.93335,-0.00299 -1.73419,0.03949 -2.65243,0c-0.88693,-0.03815 -1.63834,-0.612 -1.98557,-1.46646c-0.31445,-0.7738 -0.96463,-1.00018 -1.44732,-1.76733c-0.41614,-0.66135 -0.99543,-0.64493 -1.90046,-0.76621c-0.83651,-0.11212 -0.86798,-1.13794 -1.76889,-1.33157c-0.84167,-0.18091 -1.93423,-0.00177 -2.57623,-0.00177c-0.85599,0 -1.86999,0 -2.74887,0c-0.85602,0 -1.89853,0.13415 -2.64755,-0.0762c-0.86893,-0.24405 -1.37988,-0.90512 -2.38291,-1.14334c-0.85647,-0.20343 -1.81207,0.02487 -2.71756,-0.14158c-0.80352,-0.1477 -1.39764,-1.06134 -2.26754,-1.30554c-0.74433,-0.20895 -1.70465,0 -2.638,0c-0.79999,0 -1.70557,0 -2.62577,0c-0.92266,0 -1.57669,0 -2.59378,0c-0.91202,0 -1.84942,0.06397 -2.78045,-0.00177c-0.80579,-0.05688 -1.51896,-0.70978 -2.4,-1.10934c-0.75281,-0.34143 -1.72748,-0.20645 -2.59643,-0.22223c-0.76506,-0.01389 -1.63135,-0.43729 -2.3369,-0.8631c-0.76349,-0.46078 -1.73334,-0.47021 -2.53334,-0.47021c-0.93334,0 -1.86667,0 -2.66666,0c-0.93935,0 -1.71378,0 -2.73689,0c-0.696,0 -1.76801,0 -2.63022,0c-0.92822,0 -1.86067,0 -2.63468,0c-1.06132,0 -1.8311,-0.20166 -2.75376,0c-0.88672,0.19378 -1.40294,0.8251 -2.29689,1.29953c-0.72072,0.38247 -1.25409,1.16189 -1.9769,1.34756c-0.71189,0.18286 -1.78069,0.59497 -2.304,0.95999c-0.81627,0.56937 -1.27698,1.10187 -2.39823,1.49869c-0.74743,0.26453 -1.92032,0.15476 -2.69154,0.2702c-0.76613,0.11469 -1.88944,0.62079 -2.38579,0.84269c-0.55272,0.24707 -1.75999,0.81597 -2.39111,1.11465c-0.63111,0.29865 -1.24591,0.59583 -1.84,0.86401c-1.47633,0.66645 -2.18843,0.90155 -3.13956,1.19422c-1.00122,0.30807 -1.69752,0.53705 -2.57598,1.05289c-0.77857,0.45715 -1.25867,1.03643 -1.91089,1.68866c-0.6189,0.61889 -1.31223,1.31222 -1.89467,1.89468c-0.63889,0.63888 -1.18166,1.20914 -1.93312,1.81934c-0.7443,0.60437 -1.37831,1.0166 -2.01133,1.4862c-0.61581,0.45685 -1.70251,1.23114 -1.94445,1.97223c-0.29944,0.91724 -0.16484,1.78027 -0.65044,2.5611c-0.51091,0.82153 -0.73599,1.52905 -0.98845,2.57779c-0.1414,0.5874 -0.47015,1.61178 -0.7171,2.36755c-0.12805,0.39191 -0.51784,1.59116 -0.8,2.38202c-0.27889,0.78168 -0.54839,1.56021 -1.14955,2.58377c-0.38855,0.66153 -1.1017,1.50879 -1.57424,2.00665c-0.82538,0.86963 -1.4017,1.3628 -1.79754,1.96201c-0.61515,0.93115 -0.77129,1.60803 -1.254,2.53799c-0.30712,0.59165 -1.10109,1.47415 -1.81868,1.63224c-1.08814,0.23968 -1.81867,0.08334 -2.80022,0.08334c-0.87599,0 -1.84689,0 -2.56088,0c-0.774,0 -1.83711,0 -2.61112,0c-1.13888,0 -1.84645,0 -2.82756,0l-0.81978,0" stroke="#ff007f"/>
  <path fill="none" stroke="#ff007f" stroke-width="5" stroke-dasharray="null" stroke-linejoin="null" stroke-linecap="null" id="svg_32" d="m208.44444,408.44444c0.76089,0 1.62844,0 2.66667,0c0.78799,0 1.71422,0 2.63888,0c0.79401,0 1.73978,0 2.6749,0c0.77689,0 1.552,0 2.65845,0c0.84199,0 1.75511,0 2.66066,0c0.848,0 1.77311,0 2.54756,0c1.02911,0 1.7671,0 2.81955,0c0.78799,0 1.71422,0 2.63888,0c0.84201,0 1.96587,-0.55581 2.66668,0.02777c0.65669,0.54685 0.96598,1.26194 1.75399,1.29956c0.95894,0.04578 1.75467,0.00602 2.7929,0.00602c0.84799,0 1.62844,0 2.54756,0c0.93332,0 1.73332,0 2.78576,0c0.84801,0 1.62845,0 2.54757,0c0.93333,0 1.78132,0 2.69511,0c0.90488,0 1.59288,0 2.72356,0c0.84799,0 1.696,0 2.60977,0c0.90489,0 1.5929,0 2.72356,0c0.84799,0 1.64799,0 2.58732,0c0.77445,0 1.80356,0 2.54157,0c1.05244,0 1.85245,0 2.65243,0c1.06667,0 1.86667,0 2.66667,0c1.06669,0 1.86066,0 2.61866,0c1.08624,0 1.94845,0 2.87646,0c0.90488,0 1.5929,0 2.70932,0c0.896,0 1.67645,0 2.71466,0c0.84802,0 1.62845,0 2.55356,0c0.77445,0 1.79758,0 2.49356,0c1.07178,0 1.88623,0 2.83377,0c0.93335,0 1.73334,0 2.66669,0c0.93332,0 1.73334,0 2.78577,0c0.84799,0 1.62844,0 2.54754,0c0.93335,0 1.78134,0 2.69556,0c0.70001,0 1.52002,0 2.79935,0c0.70266,0 1.41067,0 2.41266,0c1.06488,0 1.94711,0 2.7651,0c0.77445,0 1.80347,-0.05167 2.49356,0.048c1.0886,0.15723 1.65558,0.80057 2.70044,1.17154c0.63642,0.22595 1.60001,0.1138 2.53357,0.1138c0.87601,0 1.84332,0 2.50534,0c1.13532,0 2.04813,-0.13016 2.62421,0.47021c0.6058,0.63138 0.74911,1.40992 1.40356,2.08268c0.49417,0.50799 1.62043,0.47024 2.13333,0.92798c0.69584,0.621 1.25467,1.44406 2.13157,1.73867c0.91302,0.30677 1.76287,0.11377 2.66665,0.11377c0.95822,0 1.82755,0 2.6489,0c0.86398,0 1.72509,0 2.68798,0c0.74112,0 1.71201,0 2.426,0c1.30557,0 2.09958,0 2.85757,0c0.89243,0 1.75354,0 2.71643,0c0.74112,0 1.70847,0 2.58313,0c1.008,0 1.90934,0 2.53733,0c1.27777,0 2.07177,0 2.82977,0c0.89246,0 1.75357,0 2.71646,0c0.74109,0 1.70844,0 2.5831,0c1.00201,0 1.8429,0 2.74844,0c0.79999,0 1.73334,0 2.66846,0c0.74109,0 1.71021,0 2.6311,0c0.87821,0 1.73932,0 2.70044,0c0.79999,0 1.76111,0 2.62223,0c0.87823,0 1.57422,0 2.76822,0c0.74112,0 1.67624,0 2.61132,0c0.74112,0 1.71201,0 2.426,0c1.30557,0 2.09357,0 2.80957,0c1.01623,0 1.85712,0 2.76266,0c0.79999,0 1.73566,0.06397 2.66666,-0.00177c0.80582,-0.05688 1.56903,-0.65133 2.24713,-0.95288c0.97482,-0.4335 1.71906,-0.37155 2.7909,-0.37866c0.81439,-0.0054 1.77398,0 2.44775,0c0.97089,0 1.90091,0 2.8309,0c0.93112,0 1.86112,0 2.56509,0c0.8747,0 1.85401,0 2.59803,0c0.97711,0 1.92111,0 2.586,0c1.22311,0 2.11911,0 2.84445,0c1.03866,0 1.81866,0 2.4053,0c1.32981,0 2.05158,0 2.78403,0c0.72177,0 2.05154,0 2.91153,0c0.74002,0 1.72467,0 2.46869,0c0.97732,0 1.93533,0 2.634,0c0.70932,0 2.03555,0 2.86954,0c0.97223,0 1.89889,0 2.5989,0c1.02134,0 1.71732,0 2.78931,0c0.86225,0 1.79001,0 2.66736,0c0.91666,0 1.80554,0 2.52377,0c0.97422,0 2.03379,0 2.78177,0c0.94446,0 1.83335,0 2.72223,0c0.88889,0 1.80954,0 2.66666,0c0.80002,0 1.73333,0 2.66668,0c0.85709,0 1.80954,0 2.66666,0c0.85712,0 1.71732,0 2.42511,0c0.96487,0 1.8949,0 2.82489,0c0.93088,0 1.89288,0 2.75,0c0.85712,0 1.80954,0 2.66666,0c0.84799,0 1.76156,0 2.63888,0c0.91669,0 1.83734,-0.00601 2.69446,-0.22223l0.63888,-0.44446l0.68024,-0.70044l0.1582,-0.78045"/>
  <path fill="none" stroke="#000000" stroke-width="20" stroke-dasharray="null" stroke-linejoin="null" stroke-linecap="null" id="svg_34" d="m151.11112,56.44444c0.48222,-0.95844 0.85452,-1.68079 1.18222,-2.25066c0.56745,-0.98682 1.04534,-1.72623 1.62333,-2.58267c0.3306,-0.48987 0.70282,-1.02222 1.118,-1.604c0.95955,-1.34458 1.52406,-2.10805 2.13867,-2.94044c0.66528,-0.90102 1.38562,-1.86745 2.15999,-2.9c0.82558,-1.10083 1.7054,-2.26763 2.64,-3.5c2.02392,-2.66876 3.11601,-4.0996 4.25601,-5.58045c1.17193,-1.52232 2.37295,-3.06764 3.60399,-4.614c1.23297,-1.54878 2.46753,-3.07988 3.724,-4.554c2.41383,-2.83194 3.61778,-4.11067 4.78222,-5.31377c1.1064,-1.14314 2.18241,-2.19499 3.21601,-3.16c0.96519,-0.90116 1.87822,-1.71605 2.73599,-2.44001c1.47266,-1.24291 2.10957,-1.727 2.66846,-2.14222c0.48399,-0.35958 0.91119,-0.65579 1.28999,-0.89c0.32416,-0.20042 0.61124,-0.35843 0.86999,-0.47c0.42899,-0.18496 0.62812,-0.23305 0.81067,-0.27733c0.17005,-0.04125 0.33208,-0.06877 0.48601,-0.086c0.14659,-0.01641 0.28839,-0.02343 0.426,-0.026c0.2684,-0.00501 0.40155,-0.00178 0.53334,-0.00178c0.1291,0 0.25421,0 0.37399,0c0.11311,0 0.21822,0 0.31399,0c0.15824,0 0.21868,0 0.26845,0c0.04178,0 0.07822,0 0.112,0c0.03379,0 0.81423,0 1.73334,0c0.93333,0 1.73334,0 2.66667,0c0.93332,0 1.73332,0 2.66666,0c0.93333,0 1.65556,0 2.71112,0c0.90799,0 1.6111,0 2.36755,0c1.18799,0 1.98978,0 2.80222,0c0.83378,0 1.69955,0 2.608,0c0.9529,0 1.91644,0 2.38889,0c0.89955,0 2.36978,0 3.12577,0c0.77156,0 1.806,0 2.54401,0c1.05244,0 1.84074,-0.02403 2.76666,0c0.92493,0.02401 0.8374,0.9103 1.42867,1.72734c0.47738,0.65968 1.40381,0.91532 2.41267,0.93933c0.65981,0.0157 1.44,0 2.66666,0c0.688,0 1.39734,0 2.43133,0c1.15601,0 1.79801,0 2.90201,0c0.64799,0 1.57422,0 2.59734,0c0.77442,0 1.72799,0 2.73599,0c0.64799,0 1.57422,0 2.59733,0c0.77445,0 1.71378,0 2.64711,0c0.80001,0 1.73334,0 2.66689,0c0.87601,0 1.84511,0 2.53311,0c1.11112,0 1.94444,0 2.88889,0c0.688,0 1.83555,0 2.47555,0c0.74667,0 1.60001,0 3.08,0c0.54535,0 1.10935,0 2.26132,0c0.57203,0 1.66803,0 2.17603,0c1.59644,0 2.34042,0 3.25156,0c0.79998,0 1.71908,0 2.67977,0c0.79999,0 1.65598,0 2.6731,0c0.77445,0 1.71378,0 2.64688,0c0.8198,0 1.48313,-0.49392 2.15491,-0.95467c0.77106,-0.52884 1.84555,-0.37866 2.56,-0.37866c0.91354,0 1.82241,-0.25359 2.82821,0.00022c0.77365,0.19523 1.46329,0.89249 1.65711,1.77755c0.19015,0.86831 -0.11286,1.83963 0.37866,2.60267c0.40054,0.62179 0.93066,1.47098 0.95468,2.32c0.02206,0.78013 -0.23318,1.96041 0.59021,2.47089c0.64182,0.3979 1.77576,-0.01706 2.55267,0.174c0.93225,0.22926 1.31031,0.90496 1.71424,1.79044c0.37042,0.81205 0.44781,1.93332 1.29043,2.18334c0.887,0.26318 1.69956,0.01422 2.71668,0.01422c0.65399,0 1.45898,0.09962 1.80243,0.86311c0.27456,0.61033 0.98742,1.02251 1.62844,1.64178c0.64863,0.6266 1.12555,1.1783 1.97867,1.41889c0.75928,0.21412 1.86484,-0.07578 2.66556,0.15244c0.84726,0.24149 1.54736,0.92371 2.29444,1.27133c0.75442,0.35105 1.40957,0.68535 2.02334,1.32511c0.56201,0.58582 0.07623,1.72134 0.07623,2.59645l0,0.82156l0,0.7751"/>
  <path fill="none" stroke="#000000" stroke-width="20" stroke-dasharray="null" stroke-linejoin="null" stroke-linecap="null" id="svg_38" d="m504.44446,32.44444c-0.93936,0 -1.86667,0 -2.80002,0c-0.79999,0 -1.77005,0.07456 -2.75555,-0.22222c-0.6995,-0.21065 -1.25751,-0.54228 -1.95533,-0.94578c-1.39352,-0.80577 -1.93853,-1.18146 -2.53891,-1.57333c-0.63931,-0.41727 -1.30307,-0.86427 -1.97799,-1.342c-0.68875,-0.48753 -1.37723,-0.98909 -2.038,-1.522c-1.28683,-1.03785 -1.85422,-1.58786 -2.39288,-2.12266c-0.51852,-0.51483 -0.99771,-1.029 -1.45801,-1.522c-0.44101,-0.47235 -1.24011,-1.38538 -2.08331,-2.08334c-0.76254,-0.63119 -1.54312,-1.07327 -2.25601,-1.376c-1.05835,-0.44943 -1.87842,-0.621 -2.68445,-0.624c-0.78577,-0.00292 -1.79215,-0.16885 -2.42066,-0.66666c-0.72317,-0.57279 -1.57223,-0.66367 -2.50555,-0.66667c-0.93356,-0.003 -1.80978,0.01809 -2.77689,-0.00178c-0.66238,-0.01361 -1.55694,-0.41332 -2.13336,-0.95289c-0.5603,-0.52447 -1.89084,-0.596 -2.62576,-0.75733c-0.83322,-0.18291 -1.26285,-0.29319 -2.12,-0.48445c-1.14248,-0.25492 -2.18484,-0.44621 -3.096,-0.47022c-0.86191,-0.02271 -1.77533,0 -2.65046,0c-0.8251,0 -1.69265,0 -2.73086,0c-0.78803,0 -1.50421,0.01933 -2.5849,0c-0.77658,-0.01389 -1.64227,-0.43833 -2.34845,-0.86311c-0.76877,-0.46244 -1.58044,-0.46933 -2.60956,-0.47022c-0.73801,-0.00064 -1.79043,0 -2.58444,0c-0.758,0 -1.84399,0 -2.65845,0c-0.94754,0 -1.88089,0 -2.72888,0c-0.91354,0 -1.79089,0 -2.70755,0c-0.73733,0 -1.62534,0 -2.33734,0c-0.82935,0 -1.71201,0 -2.996,0c-0.75022,0 -1.72223,0 -2.57422,0c-1.07022,0 -1.87021,0 -2.67023,0c-1.06665,0 -1.86667,0 -2.66665,0c-1.06311,0 -1.81113,0 -2.75556,0c-0.88888,0 -1.60712,-0.00081 -2.58133,0c-1.06668,0.00089 -1.62744,-0.01619 -2.54889,0.07622c-1.09622,0.10994 -1.93884,0.29952 -2.84845,0.49089c-0.46609,0.09806 -1.38678,0.32511 -2.68802,0.544c-0.74401,0.12515 -1.66818,0.1679 -2.34664,0.22044c-0.99219,0.07685 -1.90052,0.59793 -2.5669,0.86489c-1.00046,0.40082 -1.79156,0.46723 -2.71667,0.47023c-0.86979,0.00282 -1.69977,0 -2.52976,0c-0.95001,0 -1.84003,0 -2.7218,0c-1.02976,0 -1.79199,0 -2.67377,0c-0.89599,0 -1.55554,0 -2.53155,0c-1.06134,0 -1.97333,0 -2.83356,0c-0.99066,0 -1.70511,0 -2.61932,0c-0.96003,0 -1.52002,0 -2.79957,0c-0.70843,0 -1.43823,0 -2.52621,0c-1.01624,0 -1.90347,-0.0424 -2.62024,0c-0.96347,0.05698 -0.71374,0.97669 -0.97266,1.85244c-0.24685,0.83496 -1.3533,0.57459 -2.17623,0.81422c-0.79483,0.23145 -0.98887,1.18166 -1.41556,1.72622c-0.68735,0.87719 -1.7081,0.9402 -1.72733,1.75467c-0.02157,0.91294 -0.4317,1.69525 -1.16266,1.80444c-0.70935,0.10597 -1.77285,-0.00023 -2.80957,0.07578c-0.71722,0.05259 -1.71353,0.4133 -2.28842,0.91156c-0.71249,0.61753 -1.3829,1.34496 -2.16757,1.56533c-0.85446,0.23998 -2.03336,0.09928 -2.23843,0.63222c-0.31202,0.81086 -0.94742,0.74183 -1.85245,0.86311c-0.83652,0.11211 -0.81421,0.95467 -0.81421,1.90045l0,0.98844l0,0.73245"/>
  <path fill="none" stroke="#000000" stroke-width="20" stroke-dasharray="null" stroke-linejoin="null" stroke-linecap="null" id="svg_39" d="m485.77777,27.11111c0.81424,0 1.76459,-0.06042 2.41913,0.15245c1.0134,0.32956 1.59405,0.79877 2.3031,1.18089c0.75037,0.40438 1.93445,0.92985 2.74445,1.10577c0.79226,0.17207 1.59973,0.21037 2.39999,0.224c1.19937,0.02043 1.98801,0.00356 2.74445,0.00356c0.70312,0 1.87854,-0.12211 2.66665,0.02778c1.02918,0.19574 1.54633,0.90081 2.43424,1.30733c0.76886,0.35202 1.14224,1.0874 2.08889,1.28356c0.76035,0.15755 1.52094,0.34342 1.53244,1.11644c0.01389,0.93186 0.28717,1.96771 0.93934,2.45534c0.70773,0.52918 1.39712,0.57152 1.72732,1.33933c0.2644,0.6148 1.09595,0.90442 1.55557,1.80355c0.35425,0.69297 1.13205,1.03855 1.87735,1.33334c0.69287,0.27405 0.79779,1.32777 1.23377,2c0.51471,0.79356 0.66363,1.59998 0.66662,2.51911c0.003,0.92622 -0.02465,1.81267 0.47028,2.54155c0.54028,0.79566 0.64215,1.74222 1.33331,2.19645c0.72754,0.47813 0.86298,0.93933 0.8631,1.88578c0.00012,0.99022 -0.02075,1.92937 0.81421,2.17622c0.87579,0.25892 1.71564,0.03584 1.90045,0.82844c0.19324,0.82866 0.90625,1.47243 1.58069,2.14778c0.51856,0.51922 1.30286,1.30289 1.78998,1.79c0.69336,0.69334 1.55646,1.21815 1.9129,2.02667c0.34314,0.77827 0.86487,1.21533 1.80536,1.23333l0.64087,0.43245l0.19446,0.88888l0.02777,0.88889"/>
  <path fill="none" stroke="#000000" stroke-width="2" stroke-dasharray="null" stroke-linejoin="null" stroke-linecap="null" id="svg_40" d="m157.77777,49.77778c-0.45511,0.56889 -1.18178,1.47613 -1.51999,1.90222c-0.37964,0.47829 -0.79706,0.99989 -1.68889,2.16889c-0.4754,0.62315 -0.96333,1.26241 -1.90222,2.59555c-0.46588,0.66152 -0.90732,1.32463 -1.334,1.97601c-0.41415,0.63223 -0.80525,1.24599 -1.17801,1.832c-0.35211,0.55356 -1.25749,1.97553 -1.51954,2.34377c-0.60904,0.85582 -1.28985,1.38926 -2.04313,1.81445c-0.78848,0.44505 -0.89332,1.22813 -1.28443,2.23733c-0.2733,0.70523 -0.72579,1.55888 -0.83533,2.40756c-0.1303,1.00934 -0.2722,1.76982 -0.98245,2.05378c-0.78992,0.31581 -1.35102,0.99505 -1.84534,1.76377c-0.42951,0.66792 -0.79897,1.44451 -1.33356,2.50489c-0.27193,0.53937 -0.70592,1.38591 -1.04687,1.98022c-0.56795,0.98998 -1.03119,1.70866 -1.56957,2.47512c-0.28828,0.41041 -0.93379,1.27021 -1.69444,2.16666c-0.40556,0.47798 -0.84015,0.95521 -1.728,1.91644c-0.43744,0.47359 -0.87805,0.919 -1.64267,1.78845c-0.64129,0.72921 -0.9978,1.73481 -1.62489,2.35378c-0.6024,0.5946 -2.30385,1.02576 -2.33777,0.38578c-0.03816,-0.72014 1.7148,-0.51753 2.06399,-1.06845c0.55816,-0.88059 0.80028,-1.84023 1.3209,-2.46244c0.56608,-0.67655 1.49403,-1.25781 1.72621,-2.02467c0.24522,-0.80991 -0.06806,-1.94455 0.75734,-2.33244c0.7138,-0.33546 1.78038,-0.46785 1.90577,-1.18045c0.16155,-0.91797 0.38222,-1.86489 0.76978,-2.39822l0.49089,-0.92733l0.07622,-0.89134"/>
  <path fill="none" stroke="#000000" stroke-width="2" stroke-dasharray="null" stroke-linejoin="null" stroke-linecap="null" id="svg_41" d="m451.11111,83.11111c0.02778,-2 0.35596,-2.9542 0.81421,-3.46666c0.74579,-0.83403 1.54218,-1.31002 1.8527,-2.16201c0.26757,-0.73415 0.65341,-1.54009 0.95443,-2.21844c0.43509,-0.98043 0.37155,-1.76704 0.37866,-2.81956c0.00531,-0.78798 -0.3876,-1.58237 0.02778,-2.63888c0.29766,-0.75717 1.18753,-1.3414 1.29956,-2.21823c0.10855,-0.84978 -0.14978,-1.82383 0.00601,-2.66666c0.15014,-0.81239 0.81421,-1.29045 1.5982,-2.07445l0.48713,-0.48711"/>
  <path fill="none" stroke="#000000" stroke-width="2" stroke-dasharray="null" stroke-linejoin="null" stroke-linecap="null" id="svg_42" d="m425.77777,63.11111c0.76624,-0.76622 1.44537,-1.326 2.27268,-1.33333c0.91317,-0.00809 1.54077,-0.52522 1.94955,-1.33334c0.35132,-0.69448 1.05954,-1.3623 1.1171,-2.27377c0.04971,-0.78735 0.70517,-1.41441 1.16534,-2.31645c0.34314,-0.67266 0.16202,-1.632 0.16202,-2.55266c0,-0.85712 0,-1.65712 0,-2.59045l0,-0.93333l0,-0.85711"/>
  <path fill="none" stroke="#000000" stroke-width="2" stroke-dasharray="null" stroke-linejoin="null" stroke-linecap="null" id="svg_43" d="m400.44446,59.11111c-0.94046,-1.73333 -1.84201,-2.1607 -2.44269,-2.93333c-0.46634,-0.59983 -0.98871,-1.32289 -1.55731,-1.73334c-0.90094,-0.65033 -1.20056,-1.38658 -1.71381,-2.26844c-0.36413,-0.62567 -1.09381,-1.48946 -1.50042,-2.19378c-0.30607,-0.53013 -0.62323,-1.12581 -1.21399,-2.09933c-0.42902,-0.70696 -0.89545,-1.39999 -1.29203,-2.092c-0.65286,-1.13921 -0.87127,-1.9996 -1.16867,-2.902c-0.2196,-0.66634 -0.58911,-1.39342 -1.11108,-2.44445c-0.39188,-0.78906 -0.86597,-1.45614 -1.17136,-2.34289c-0.26578,-0.77175 -0.16199,-1.79022 -0.16199,-2.51422c0,-1.06644 0,-1.80955 0,-2.81911l0,-0.794"/>
  <path fill="none" stroke="#000000" stroke-width="2" stroke-dasharray="null" stroke-linejoin="null" stroke-linecap="null" id="svg_44" d="m364.44446,64.44444c-0.95468,-0.11377 -1.29312,-0.8149 -1.33335,-1.85244c-0.03375,-0.8709 -0.59332,-1.69775 -0.94046,-2.23089c-0.39642,-0.60882 -0.86099,-1.21141 -1.40243,-2.39244c-0.34543,-0.75347 -0.9755,-1.21343 -1.72733,-1.60045c-0.76376,-0.39316 -0.85968,-1.51625 -1.37512,-2.21c-0.47772,-0.64297 -1.17172,-1.32485 -1.20709,-1.96089c-0.05875,-1.05602 0.07053,-1.94361 -0.48447,-2.81355c-0.39779,-0.62354 -0.86309,-1.40956 -0.86309,-2.30645c0,-0.82933 -0.66614,-1.05059 -1.22135,-1.67999c-0.668,-0.75729 -0.89422,-1.55739 -1.28354,-2.41956c-0.28592,-0.63319 -0.65112,-1.59615 -1.10113,-2.20956c-0.54322,-0.74045 -0.96146,-1.38622 -1.34687,-2.23133c-0.43673,-0.95762 -0.38046,-1.46311 -0.38046,-0.62578c0,0.8 -0.07535,1.77027 0.22223,2.75556c0.20572,0.68119 0.66522,1.45562 1.07379,2.02666c0.72238,1.00964 1.06558,1.33785 1.74753,2.10845c0.37256,0.42096 1.18387,1.33911 1.60712,1.85244c0.91775,1.1131 1.38028,1.74131 1.86667,2.39645c0.50613,0.6817 1.02264,1.39257 1.56601,2.116c0.55697,0.74154 1.12936,1.4964 1.746,2.236c1.2568,1.50739 1.95441,2.21885 2.65777,2.92622c0.70203,0.706 1.41852,1.38683 2.124,2.06c0.69186,0.66016 1.37323,1.29615 2.004,1.94c1.18277,1.20728 1.68069,1.81186 2.12979,2.4c0.42694,0.55911 0.80313,1.11576 1.14398,1.66c0.32736,0.52268 0.62124,1.03955 0.90402,1.54c0.54196,0.95914 0.8049,1.42119 1.07199,1.86667c0.26053,0.4345 0.77405,1.25996 1.02045,1.65333c0.46765,0.7466 1.08865,1.76515 1.6,2.66667c0.30201,0.53244 0.85636,1.43395 1.3671,2.14755c0.60193,0.84099 0.80002,1.648 0.81424,2.57534l0,0.91155l0,-0.78645"/>
  <path fill="none" stroke="#000000" stroke-width="2" stroke-dasharray="null" stroke-linejoin="null" stroke-linecap="null" id="svg_45" d="m352.44446,96.44444c-2,-0.05555 -2.82935,-0.57124 -3.20001,-1.16266c-0.43555,-0.69494 -0.94379,-1.7653 -1.31913,-2.55644c-0.34793,-0.73337 -0.57464,-1.60827 -0.84799,-2.40001c-0.34222,-0.99126 -0.92422,-1.52715 -1.18756,-2.52622c-0.17767,-0.67403 -0.28699,-1.82416 -0.67911,-2.50667c-0.34732,-0.60452 -0.75232,-1.51435 -0.7662,-2.448c-0.0119,-0.79991 0,-1.81866 0,-2.69533c0,-0.77311 -0.03824,-1.79918 -0.56714,-2.35178c-0.59366,-0.62027 -0.43604,-1.51667 -1.06131,-2.36244c-0.46936,-0.63489 -0.79065,-1.30122 -1.05246,-2.17622c-0.2496,-0.83415 -1.42773,-0.4659 -2.17621,-0.89044c-0.66434,-0.37682 -0.06219,-1.79237 -0.77157,-2.42845c-0.58783,-0.52708 -1.83191,0.13751 -2.48331,-0.38956c-0.63706,-0.51547 -0.81107,-1.43443 -1.29779,-1.90933c-0.88318,-0.86171 -1.73801,-1.33341 -2.17246,-1.59645c-0.89325,-0.54084 -1.37494,-0.76112 -2.63998,-1.6c-0.76422,-0.50676 -1.08689,-0.7869 -1.96802,-1.50399c-0.49292,-0.40117 -1.74207,-0.68581 -2.31442,-1.45778c-0.53067,-0.71577 0.53244,-1.03823 1.43622,-1.03645l0.84622,0.22045l0.22223,0.88889"/>
  <path fill="none" stroke="#000000" stroke-width="2" stroke-dasharray="null" stroke-linejoin="null" stroke-linecap="null" id="svg_46" d="m453.77777,85.77778c0.58133,-1.13423 0.80292,-1.88244 1.60001,-2.44089c0.71063,-0.49787 1.60647,-0.80013 2.13333,-1.29423c0.82449,-0.77321 1.42822,-1.28225 2.24356,-1.48622c0.86023,-0.21518 1.76779,-0.50766 2.13333,-1.18044c0.43665,-0.8037 1.35294,-1.12882 2.08023,-1.66844c0.61725,-0.45797 0.33029,-1.56487 0.59,-2.32978c0.29562,-0.87071 1.10187,-1.58023 1.21356,-2.45711c0.12036,-0.94483 -0.33899,-1.91631 0.08221,-2.66667c0.41999,-0.7482 1.24323,-1.17034 1.25711,-2.07444c0.013,-0.84613 0,-1.7629 0.00177,-2.66845l0.112,-0.8l0.45334,-0.78578"/>
  <path fill="none" stroke="#000000" stroke-width="2" stroke-dasharray="null" stroke-linejoin="null" stroke-linecap="null" id="svg_47" d="m439.11111,67.11111c1.34757,-0.58133 1.53312,-1.56119 2.14756,-2.08533c0.69519,-0.593 1.505,-1.02958 2.07821,-1.536c0.58335,-0.51537 1.74704,-0.41587 2.41312,-1.04534c0.56421,-0.53319 1.6239,-0.32362 2.31399,-0.78044c0.61814,-0.40919 0.59397,-1.66645 0.85068,-2.56c0.19004,-0.66143 0.42926,-1.30997 0.70133,-2.46889c0.18695,-0.79628 0.54486,-1.61286 0.928,-2.468c0.45423,-1.01378 0.45224,-1.79075 0.54755,-2.60977c0.09665,-0.83079 0.08279,-1.68416 0.60977,-2.46623c0.42832,-0.63567 1.26398,-1.02054 1.63202,-1.98c0.34519,-0.89986 0.31055,-1.4868 0.41666,-2.66667c0.05368,-0.59679 -0.0325,-1.19721 0.25,-2.66666c0.17297,-0.89972 0.88888,-1.55556 1.11111,-2.44445l0.46424,-0.68044"/>
  <path fill="none" stroke="#000000" stroke-width="2" stroke-dasharray="null" stroke-linejoin="null" stroke-linecap="null" id="svg_48" d="m421.77777,64.44444c0,-0.93933 0,-1.89511 0,-2.62755c0,-1.06489 0,-1.72089 0,-2.77489c0,-1.042 0,-1.682 0,-2.542c0,-1.16667 0,-1.87422 0,-2.85556c0,-0.79999 0,-1.7191 0,-2.75555c0,-0.71711 0,-1.65867 0,-2.66667c0,-0.654 0,-1.65044 0,-2.71066c0,-0.772 0,-1.448 0,-2.456c0,-1.12512 0,-1.83133 0,-2.63889c0,-0.83423 0,-1.97223 0,-2.80422c0,-0.78223 0,-0.47356 0,0.432l0,0.8l0,0.90555"/>
  <path fill="none" stroke="#000000" stroke-width="2" stroke-dasharray="null" stroke-linejoin="null" stroke-linecap="null" id="svg_49" d="m197.77777,97.77778c-0.69444,-0.66667 -1.76166,-0.95423 -2.44444,-1.55556c-0.54813,-0.48275 -0.86852,-1.35769 -1.63889,-1.98133c-0.59596,-0.48245 -1.2612,-0.90964 -2.13888,-1.57422c-0.69602,-0.52704 -1.31424,-1.05835 -1.77823,-1.85067c-0.46945,-0.80163 -1.16216,-0.93618 -2.02266,-1.15022c-0.8167,-0.20314 -1.61578,-0.84364 -2.40533,-1.05933c-0.88247,-0.24108 -1.5929,-0.16099 -2.72356,-0.16201c-0.98134,-0.00088 -1.86249,0.0551 -2.57533,-0.47622c-0.6529,-0.48662 -0.82676,-1.59966 -1.41556,-2.12622c-0.74295,-0.6644 -1.19811,-1.04813 -1.79044,-1.79045c-0.60957,-0.76394 -1.56486,-0.91628 -2.25246,-1.52177c-0.71826,-0.6325 -0.75283,-1.49561 -1.25866,-2.30756c-0.43093,-0.69171 -1.10793,-1.33045 -1.57866,-1.68533c-0.92351,-0.69622 -1.70459,-0.91581 -2.40534,-1.64511c-0.48481,-0.50458 -0.92749,-1.18357 -1.36799,-1.932c-0.68373,-1.16171 -1.0289,-1.98207 -1.20001,-2.388c-0.345,-0.81841 -0.65886,-1.67643 -1.22577,-3.01622c-0.20096,-0.47493 -0.64574,-1.44308 -0.87822,-1.93067c-0.46129,-0.96749 -0.69296,-1.43552 -1.34401,-2.736c-0.37512,-0.74932 -0.6647,-1.43873 -1.22577,-2.22289c-0.50334,-0.70349 -1.21574,-1.19695 -1.896,-1.722c-0.8999,-0.69458 -1.46829,-1.34192 -1.83822,-2.06578c-0.43427,-0.84974 -0.02541,-2.29954 -0.59557,-2.28133c-0.79368,0.02535 0.02072,1.73358 0.59023,2.48555c0.45186,0.59663 1.53293,0.94974 1.92401,1.76201c0.41025,0.85208 0.09692,1.7878 0.62866,2.67266c0.39185,0.65207 0.99022,1.35556 1.37622,2.01356l0.43378,0.82133l0.37445,0.89956"/>
  <path fill="none" stroke="#000000" stroke-width="2" stroke-dasharray="null" stroke-linejoin="null" stroke-linecap="null" id="svg_50" d="m205.77777,85.77778c-0.75732,-0.384 -1.43521,-0.65952 -1.90933,-1.296c-0.71053,-0.95386 -0.64028,-1.73386 -0.92088,-2.36978c-0.57409,-1.30098 -1.33759,-1.73761 -2.11911,-2.10489c-0.4045,-0.19009 -1.26755,-0.42876 -2.38401,-0.896c-0.85658,-0.35848 -1.46945,-0.75488 -2.26489,-1.60178c-0.5183,-0.55183 -0.87198,-1.50332 -1.07733,-2.19378c-0.24794,-0.83368 -0.85527,-1.78344 -1.50756,-2.44622c-0.35737,-0.36311 -1.17198,-1.04387 -1.59645,-1.36178c-0.80838,-0.60543 -1.82724,-1.35086 -2.60977,-1.58577c-0.9146,-0.27456 -1.8285,-0.17402 -2.49956,-0.58844c-0.69836,-0.43129 -1.36297,-1.13176 -1.91288,-1.46489c-1.01456,-0.61461 -1.80825,-0.72955 -2.87444,-0.75734c-0.90481,-0.02358 -1.93324,0.36259 -2.61,-0.11378c-0.64633,-0.45496 -0.14432,-1.88541 -0.97111,-2.39088c-0.69059,-0.42221 -1.54641,-0.1436 -2.60578,-0.16378c-0.74832,-0.01426 -1.54758,-0.3302 -2.13335,-0.95289c-0.47471,-0.50464 -1.29873,-0.84647 -1.33688,-1.74578c-0.03307,-0.77974 0,-1.69955 0,-2.63289c0,-0.8 0.24631,-1.89682 -0.37866,-2.55466c-0.61411,-0.64641 -1.02435,-1.1319 -1.71378,-1.71201c-0.74933,-0.63051 -1.72201,-1.02138 -2.22534,-1.46666c-0.6887,-0.60929 -1.86354,-1.43613 -1.55421,-2.21867c0.14355,-0.36317 1.45973,-0.15068 2.31643,0.17422c0.72713,0.27577 1.28179,0.71712 2.07578,1.50511l0.36867,0.71712l0.71711,0.21622l1.03289,0.006"/>
  <path fill="none" stroke="#000000" stroke-width="2" stroke-dasharray="null" stroke-linejoin="null" stroke-linecap="null" id="svg_51" d="m220.44444,69.77778c-0.66667,-0.69444 -1.07977,-1.71556 -1.63221,-2.26667c-0.72945,-0.72767 -1.582,-0.8 -2.36779,-1.06667c-0.78578,-0.26666 -1.81897,-0.61346 -2.50311,-1.18577c-0.65089,-0.54449 -1.57455,-0.44979 -2.38577,-0.81423c-0.59793,-0.26861 -0.61873,-1.37003 -1.13889,-2c-0.58792,-0.71203 -1.39757,-1.30555 -1.75,-2.22222c-0.23675,-0.6158 -0.14218,-1.6039 -0.78933,-2.36267c-0.57586,-0.67517 -0.76108,-1.41512 -0.76622,-2.21511c-0.00602,-0.93338 -0.42322,-1.89485 -0.94645,-2.26666c-0.61107,-0.43424 -1.73857,-1.0139 -2.19134,-1.46667c-0.72443,-0.72443 -0.85511,-1.59992 -0.86221,-2.53333c-0.00712,-0.93331 0.01654,-1.66469 -0.22223,-2.71111c-0.13366,-0.58571 -0.44793,-1.5651 -0.71711,-2.21511c-0.48408,-1.16898 -0.97487,-1.77579 -1.25111,-2.41423c-0.40987,-0.94723 -0.42822,-1.92711 -0.46201,-2.592l-0.01422,-1.22311l0,-0.686"/>
  <path fill="none" stroke="#000000" stroke-width="2" stroke-dasharray="null" stroke-linejoin="null" stroke-linecap="null" id="svg_52" d="m233.77777,59.11111c-0.01422,-1.14844 -0.02113,-2.06017 -0.37866,-2.81955c-0.38911,-0.82646 -0.91048,-1.58404 -0.95288,-2.36089c-0.05675,-1.03965 -0.0641,-1.87082 -0.22934,-2.51556c-0.30194,-1.17814 -0.7116,-2.04499 -0.90666,-2.50489c-0.3956,-0.93267 -0.64321,-1.37355 -1.088,-2.688c-0.24954,-0.73745 -0.13765,-1.87095 -0.8889,-2.66666c-0.54366,-0.57583 -1.43395,-0.32644 -2.37332,-0.82489c-0.79126,-0.41986 -0.9827,-1.40375 -1.40445,-2.28622c-0.34549,-0.72292 -1.02436,-1.45425 -1.10512,-2.19045c-0.10387,-0.94678 -0.006,-1.94267 -0.006,-2.66666l0,0l0,0.99022l0,0.724"/>
  <path fill="none" stroke="#000000" stroke-width="2" stroke-dasharray="null" stroke-linejoin="null" stroke-linecap="null" id="svg_53" d="m259.11111,61.77778c0,-1.13423 0,-1.90933 0,-2.96267c0,-0.872 0,-1.704 0,-2.44178c0,-0.84444 0,-1.74222 0,-2.63999c0,-1.23156 0,-1.93645 0,-2.86045c0,-1.09511 0,-1.89511 0,-2.69511c0,-1.06667 0,-1.86667 0,-2.66667c0,-1.06666 0,-1.86066 0,-2.61866c0,-1.086 0,-1.75356 0,-2.71467c0,-0.8 0,-1.81867 0,-2.77867c0,-0.84088 0,-1.72089 0,-2.66844c0,-0.688 0,-1.70489 0,-2.66667c0,-0.688 0,-1.70489 0,-2.66667c0,-0.688 0,-1.70489 0,-2.66488c0,-0.84089 0.23999,-1.57867 0.38111,-1.94556c0.73001,-1.898 1.09485,-2.84563 1.51224,-3.93356c0.45819,-1.19427 0.94333,-2.46179 1.44,-3.77c0.4989,-1.31402 0.98636,-2.60068 1.43997,-3.83c0.78946,-2.13956 1.08777,-2.99628 1.32446,-3.70666c0.19138,-0.57437 0.33289,-1.02998 0.43,-1.38c0.07068,-0.25477 0.11255,-0.43047 0.13,-0.54c0.01126,-0.07077 0.00888,-0.05845 0.00888,0.81777c0,0.81423 0,1.73334 0,2.66667c0,0.8 0,1.73334 0,2.66667c0,0.8 0,1.73933 0,2.51378c0,1.02311 0.03131,1.71957 -0.00021,2.79089c-0.02399,0.81549 -0.46555,1.58032 -0.86289,2.37155c-0.46414,0.92425 -0.45413,1.68459 -0.46844,2.45889c-0.01959,1.06116 0.29196,1.9475 -0.29691,2.87467c-0.39322,0.61911 -0.95889,1.27745 -1.07199,1.952c-0.17447,1.04066 -0.41327,1.8364 -0.82934,2.75244c-0.40018,0.88101 -0.47022,1.64689 -0.47199,2.55067l-0.29333,0.90644"/>
  <path fill="none" stroke="#000000" stroke-width="2" stroke-dasharray="null" stroke-linejoin="null" stroke-linecap="null" id="svg_54" d="m280.44446,69.77778c0,-3.152 -0.06995,-4.14173 0.04797,-4.848c0.15589,-0.93369 0.65131,-1.80591 0.90668,-2.50667c0.34763,-0.95384 0.37689,-1.71022 0.37866,-2.64533c0.00177,-0.93334 0.02863,-1.78906 0.56711,-2.51911c0.60232,-0.8166 0.76623,-1.50867 0.76623,-2.54156c0,-0.86311 0,-0.24489 0,0.788l0,0.86911"/>
  <ellipse fill="#ffaad4" stroke="#ffaad4" stroke-width="5" stroke-dasharray="null" stroke-linejoin="null" stroke-linecap="null" cx="137.333333" cy="255.111111" id="svg_58" rx="77.333333" ry="36"/>
  <ellipse fill="#ffaad4" stroke-width="5" stroke-dasharray="null" stroke-linejoin="null" stroke-linecap="null" cx="528.000001" cy="267.77777" id="svg_59" rx="74.666667" ry="27.333334" stroke="#ffaad4"/>
  <path fill="none" stroke="#ff0000" stroke-width="2" stroke-dasharray="null" stroke-linejoin="null" stroke-linecap="null" id="svg_61" d="m420.88889,129.77777c0,0.76624 0.233,1.77262 0.5671,2.48178c0.30597,0.64942 0.3725,1.81024 0.87824,2.46933c0.49686,0.64752 1.58404,0.90889 2.15466,1.24535c0.87125,0.51373 1.79794,0.63866 2.42777,1.13689c0.72345,0.57229 1.44711,0.88725 2.04245,1.52977c0.52002,0.56124 1.66354,0.44226 2.59643,0.47023c0.80109,0.02401 1.6221,0.35087 2.19046,0.86311c0.80728,0.72754 1.21024,1.43051 2.20355,1.72732c0.83594,0.24979 1.63379,0.07622 2.67267,0.07622c0.93332,0 1.73657,-0.0717 2.66666,0.00601c0.673,0.05623 1.81891,0.48198 2.21869,1.29355c0.35605,0.72281 0.88537,1.14223 1.38308,1.74578c0.53781,0.65214 1.06669,0.95289 1.99823,0.95466l0.93155,-0.00177l0.84622,-0.22044l0.33423,-0.73245"/>
  <path fill="none" stroke="#ff0000" stroke-width="2" stroke-dasharray="null" stroke-linejoin="null" stroke-linecap="null" id="svg_63" d="m423.55554,112.44444c0.81424,0 1.9115,-0.26138 2.55469,0.37867c0.57068,0.56791 1.12,0.91548 1.96445,1.52178c0.72235,0.51864 1.39553,0.76622 2.28067,0.76622c0.97799,0 1.60769,0.56921 2.26864,0.95467c0.8375,0.48842 1.82047,0.37866 2.70935,0.37866c0.78934,0 1.61274,-0.17798 2.25,-0.66666c0.84073,-0.64471 1.76047,-0.55078 2.55356,-0.68089c0.91641,-0.15036 1.55078,-0.77382 1.97333,-1.584c0.45959,-0.88123 1.24591,-1.12123 1.43933,-2.00778c0.20069,-0.91993 0.00598,-1.94955 0.00598,-2.59155c0,-0.856 -0.1496,-1.94038 0.07624,-2.74178c0.24188,-0.85834 0.88003,-1.37401 1.14511,-2.37089c0.22787,-0.85695 0.41385,-1.68796 1.18045,-2.13333c0.79086,-0.45948 1.18295,-1.31983 1.63198,-1.97512c0.48722,-0.71101 1.56632,-0.59323 2.36625,-0.58132c0.93362,0.01388 1.73309,0.29532 2.35199,0.81421l0.50509,0.91312l0.08225,0.8631"/>
  <path fill="none" stroke-width="2" stroke-dasharray="null" stroke-linejoin="null" stroke-linecap="null" id="svg_64" d="m442.22223,112.44444c0,0.93934 0,1.85245 0,2.8889c0,0.71711 0.01422,1.63021 0.47021,2.37422l0.7511,0.45067l0.224,0.68799" stroke="#ff0000"/>
  <path fill="none" stroke="#ff0000" stroke-width="2" stroke-dasharray="null" stroke-linejoin="null" stroke-linecap="null" id="svg_65" d="m440.88889,115.11111c0,0.75734 0,1.53244 0,2.59911c0,0.82845 -0.00397,1.69601 0,2.73422c0.00302,0.78802 -0.17713,1.90154 0.47622,2.52023c0.67749,0.64155 1.53497,0.8294 2.19043,1.47977c0.52832,0.52423 0.91809,1.43005 1.36713,2.08534c0.48721,0.711 1.60132,0.43541 2.36621,0.69511c0.8707,0.29563 1.58029,1.10154 2.45712,1.21356c0.84976,0.10855 1.80954,0.00599 2.66666,0.00599c0.85669,0 1.89426,-0.30201 2.56155,0.04801c0.8104,0.42509 0.80356,1.50755 1.39557,2.05156l0.784,0.45332l0.95645,0.11378l0.80643,0"/>
  <path fill="none" stroke="#ff0000" stroke-width="2" stroke-dasharray="null" stroke-linejoin="null" stroke-linecap="null" id="svg_66" d="m418.22223,133.77777c0,-0.95467 0.58969,-1.46165 1.59821,-1.33154c0.86727,0.11187 1.06543,0.93753 1.06845,1.85066c0.00305,0.92622 0.08755,1.79768 -0.22223,2.59199c-0.28256,0.72452 -0.80466,1.51638 -1.63022,2.14045c-0.66947,0.50605 -0.52552,1.49298 -0.86222,2.16711c-0.38028,0.7614 -1.64199,0.37755 -2.35199,0.8089c-0.83416,0.50679 -0.92205,1.44963 -1.73312,2.11533c-0.63492,0.52113 -1.18634,1.01789 -1.20022,1.92199c-0.01468,0.95635 0,1.7629 0,2.66668c0,0.95822 0,1.82577 0,2.60089c0,0.99377 0,1.89332 0,2.71466c0,1.05755 0,1.87201 0,2.68622c0,0.8 0,1.73333 0,2.66667c0,0.8 -0.14795,1.82052 0.38046,2.66488c0.43197,0.69026 1.34625,1.00037 2.31998,1.06845c0.78002,0.05454 1.69357,0.47622 2.15667,0.93934l0.44245,0.91311l0.50399,0.74399"/>
  <path fill="none" stroke="#ff0000" stroke-width="2" stroke-dasharray="null" stroke-linejoin="null" stroke-linecap="null" id="svg_67" d="m395.55554,133.77777c-0.7662,0 -1.77777,0 -2.46753,0c-1.08801,0 -1.7493,0.23493 -2.47891,0.94045c-0.41064,0.39708 -1.01297,1.08387 -2.04397,1.57978c-0.70679,0.33997 -1.49143,1.04854 -2.27869,1.40355c-0.75391,0.33997 -1.68915,-0.02008 -2.70221,0.37134c-0.71265,0.27536 -1.61972,0.64076 -2.21912,1.10845c-0.69046,0.53875 -0.50418,1.66352 -0.47622,2.59643c0.02401,0.80109 0.24063,1.74286 0.95468,2.28623c0.74225,0.56481 1.68615,0.75225 1.7102,1.44889c0.03522,1.02065 -0.75113,1.52886 -1.53067,1.584c-1.04989,0.07428 -1.82864,0.01422 -2.86154,0.01422c-0.86911,0 -1.63379,0 -2.66666,0c-0.86914,0 -1.63378,0 -2.66668,0c-0.86911,0 -1.63376,0.00358 -2.66666,0c-0.86914,-0.003 -1.52066,-0.5671 -2.27267,-1.11111l-0.75199,-0.256"/>
  <path fill="none" stroke="#ff0000" stroke-width="2" stroke-dasharray="null" stroke-linejoin="null" stroke-linecap="null" id="svg_70" d="m376.88889,116.44444c-1.80356,1.33934 -2.40415,1.78083 -2.88889,2.66668c-0.38943,0.71169 -1.32461,1.15694 -1.97534,1.25711c-0.84888,0.13067 -1.46735,0.441 -1.9162,1.03088c-0.54846,0.72083 -1.74075,0.44078 -2.66492,0.37867c-0.84839,-0.05701 -1.21832,-0.8631 -1.22131,-1.80955c-0.00272,-0.85711 0,-1.71423 0,-2.66668c0,-0.85711 0.11435,-1.72183 -0.00601,-2.66666c-0.1117,-0.87688 -0.92862,-1.31716 -1.32734,-2.20467c-0.34924,-0.77745 -0.69442,-1.3191 -1.5982,-1.69777l-0.59223,-0.48445l-0.85668,-0.472l-0.68799,-0.112"/>
  <path fill="none" stroke="#ff0000" stroke-width="2" stroke-dasharray="null" stroke-linejoin="null" stroke-linecap="null" id="svg_71" d="m391.55554,97.77778c0,-1.91467 0.01218,-2.8001 0,-3.6c-0.01422,-0.93366 -0.41879,-1.76897 -1.14844,-2.26667c-0.6333,-0.432 -1.51446,-0.90356 -2.1571,-1.46667c-0.72403,-0.63443 -1.44907,-1.26735 -1.866,-2.13311c-0.32986,-0.68496 -0.92013,-1.07408 -1.76001,-1.57888c-0.65579,-0.39417 -1.43017,-1.19655 -1.83465,-1.76889c-0.59833,-0.84662 -0.69449,-1.79761 -0.53934,-2.54689c0.19669,-0.95 0.88013,-1.56447 1.70557,-1.902c0.9053,-0.37019 1.68585,-0.69754 2.10488,-1.53667c0.38614,-0.77323 0.97599,-1.1863 1.8891,-1.20022c0.95356,-0.01453 1.52066,-0.58133 2.27268,-1.33334c0.5191,-0.5191 1.27627,-1.21534 1.33331,-2.02777c0.06329,-0.90156 0,-1.81044 0,-2.66667l0,-0.90378l0,-0.90644"/>
  <path fill="none" stroke="#ff0000" stroke-width="2" stroke-dasharray="null" stroke-linejoin="null" stroke-linecap="null" id="svg_72" d="m412.88889,89.77778c0.76623,-0.04801 1.14822,-0.83929 1.55557,-1.55556c0.39746,-0.69886 0.67721,-1.60721 1.40643,-2.28267c0.5022,-0.46517 1.71109,-0.64415 2.14911,-1.49511c0.31781,-0.61744 0.22223,-1.59999 0.22223,-2.4c0,-1.01866 0,-1.89533 0,-2.66844c0,-1.01689 0,-1.89356 0,-2.66666c0,-1.0169 0,-1.89356 0,-2.66668c0,-1.01688 -0.44589,-1.56546 -1.14844,-1.61244c-0.87839,-0.05873 -1.84201,-0.456 -2.44556,-0.84888l-0.92511,-0.43645l-0.70047,-0.41245l-0.11377,-0.95288"/>
  <path fill="none" stroke="#ff0000" stroke-width="2" stroke-dasharray="null" stroke-linejoin="null" stroke-linecap="null" id="svg_73" d="m255.55556,133.77777c-0.04801,-0.76622 -0.74973,-1.31943 -1.77779,-1.33333c-0.57773,-0.00781 -1.52778,-0.00627 -2.41777,0c-1.00807,0.00711 -1.64531,0.68746 -2.47111,1.11112c-0.62525,0.32075 -1.62062,0.57846 -2.13333,1.03644c-0.83725,0.74786 -1.35839,1.35101 -2.08889,1.85244c-0.62362,0.42809 -1.68954,0.77347 -2.21689,1.60001c-0.37684,0.59067 -0.09384,1.70805 -0.67201,2.39999c-0.55906,0.66909 -1.56135,0.73211 -2.06978,1.73334c-0.42819,0.84322 -0.15243,1.68533 -0.15243,2.64711c0,0.95288 0,1.7049 0,2.66667c0,0.95288 0,1.70488 0,2.66666c0,0.9529 0,1.70489 0,2.66667c0,0.95288 0,1.7049 0,2.66667c0,0.95288 0,1.70488 0,2.66666c0,0.9529 0.06923,1.81242 -0.38045,2.55289c-0.45155,0.74357 -1.16398,1.39074 -1.81,1.92378c-0.65353,0.53924 -1.61044,0.47623 -2.38555,0.47623c-1.05266,0 -1.82578,0 -2.84267,0c-0.87666,0 -1.64978,0 -2.66667,0l-0.87644,0"/>
  <path fill="none" stroke="#ff0000" stroke-width="2" stroke-dasharray="null" stroke-linejoin="null" stroke-linecap="null" id="svg_74" d="m235.55556,152.44444c1.91465,0 2.79977,0 3.61955,0c0.96178,0 2.01346,-0.54594 2.82489,0c0.52069,0.35033 0.55112,1.44403 0.98845,2.13333c0.49261,0.77643 0.42923,1.60938 0.56711,2.61867c0.11285,0.82605 0.95689,1.31639 1.25711,2.30867c0.25281,0.83559 0.65754,1.52066 1.14467,2.00778c0.78399,0.784 1.35341,1.48609 2.17955,1.59823c0.87707,0.11904 1.75459,-0.08667 2.46577,0.37866c0.75084,0.49128 1.48622,0.90666 2.41934,0.95489l0.81978,0.11356l0.37444,0.74933"/>
  <path fill="none" stroke="#ff0000" stroke-width="2" stroke-dasharray="null" stroke-linejoin="null" stroke-linecap="null" id="svg_75" d="m270.22223,125.77778c0.93933,0 1.85245,0 2.77866,0c0.90356,0 1.86999,-0.04473 2.55465,0.02778c1.12174,0.11879 1.78388,0.5973 2.39823,0.92689c0.86639,0.46479 1.32733,1.22025 2.078,1.63578c0.86911,0.48107 1.79883,-0.03502 2.72378,0.09043c0.8191,0.1111 1.43787,0.65354 2.18134,1.36712c0.64557,0.61959 1.43906,1.0475 2.14246,1.27934c0.89102,0.29369 1.52002,0.88278 1.76153,1.87266c0.22153,0.90793 0.04801,1.73333 0.04801,2.66666c0,0.93333 0,1.73334 0,2.65245c0,0.896 0,1.75467 0,2.54044c0,1.00467 -0.03925,1.88063 0,2.79289c0.03814,0.8869 0.69015,1.513 1.33334,2.14755c0.52982,0.52271 1.31357,1.21555 2.19043,1.32735c0.9133,0.11645 1.63888,0.006 2.61313,0.006c1.06311,0 1.8631,0 2.66311,0c1.06488,0 1.83887,0 2.55289,0c0.97089,0 1.98044,0 2.78043,0l0.93335,0l0.93332,0l0.85711,0"/>
  <path fill="none" stroke="#ff0000" stroke-width="2" stroke-dasharray="null" stroke-linejoin="null" stroke-linecap="null" id="svg_76" d="m258.22223,135.11112c-2.08533,0 -2.66667,0.37866 -2.66667,1.31378c0,0.77865 0,1.59999 0,2.65754c0,0.81446 0,1.76201 0,2.69533c0,0.80001 0,1.72734 0,2.60845c0,0.94378 0,1.77378 0,2.40489c0,1.20889 0,2.07644 0,2.95289c0,0.848 0,1.76711 0,2.70044c0,0.752 0.52888,1.1891 1.33333,1.55556c0.70825,0.32263 1.36172,1.06982 2.27978,1.11711c0.63455,0.03268 1.73587,0.22316 2.3591,0.68845c0.75617,0.56451 1.45126,1.17727 2.02179,1.96621c0.50089,0.69266 0.87921,1.49329 1.17734,2.3489c0.26895,0.77194 0.44348,1.80082 0.92822,2.40911c0.53806,0.67521 0.56711,1.52178 0.56711,2.30755c0,1.05067 0,1.87979 0,2.79289l0,0.92622l0,0.82733l0,0.91312"/>
  <path fill="none" stroke="#ff0000" stroke-width="2" stroke-dasharray="null" stroke-linejoin="null" stroke-linecap="null" id="svg_77" d="m234.22223,125.77778c-0.75,0 -1.77779,0 -2.66779,0c-0.63777,0 -1.52777,0 -2.66556,0c-0.81422,0 -1.72732,0 -2.66665,0c-0.75734,0 -1.61163,0.38417 -2.6389,-0.02778c-0.76393,-0.30634 -1.36106,-1.3056 -1.88022,-1.82467c-0.65239,-0.65227 -1.50867,-0.81422 -2.41245,-0.81422c-0.90666,0 -1.76289,0 -2.66844,0c-0.8,0 -1.79721,-0.11657 -2.53311,0.29533c-0.70476,0.39447 -0.91626,1.5749 -1.49533,2.20978c-0.51544,0.56512 -1.00871,1.30908 -1.03223,1.964c-0.0365,1.01649 -0.03438,1.98487 -0.5731,2.71667c-0.52729,0.71626 -0.76622,1.57155 -0.76622,2.34666c0,0.98778 0,1.82868 0,2.73246c0,0.90643 0,1.82577 0,2.60087c0,0.98778 0,1.82868 0,2.73245c0,0.90667 0.0001,1.7629 0,2.66668c-0.00013,0.90643 -0.69446,1.06843 -1.59824,1.06843c-0.95644,0 -1.76288,0 -2.66665,0l-0.95467,0"/>
  <path fill="none" stroke="#ff0000" stroke-width="2" stroke-dasharray="null" stroke-linejoin="null" stroke-linecap="null" id="svg_78" d="m228.88888,112.44444c0,-1.90044 0,-2.81311 0,-3.6131c0,-0.85601 0.01191,-1.87321 0,-2.64756c-0.01422,-0.92544 -0.60218,-1.53935 -1.38888,-1.79489c-0.76096,-0.2472 -1.56334,-0.81168 -2.07777,-1.36111c-0.55439,-0.5921 -1.01424,-1.29897 -1.86667,-2.13889c-0.75626,-0.74517 -1.33869,-1.0755 -1.86667,-1.442c-1.07784,-0.74817 -1.58995,-1.21244 -2.13333,-1.64133c-0.78589,-0.62032 -1.8544,-1.19046 -2.63889,-1.30556c-0.70831,-0.10393 -1.89868,0.08157 -2.69444,-0.27778c-0.70932,-0.32031 -1.39021,-0.9606 -2.14757,-1.15911c-0.97313,-0.25506 -1.65797,-0.84627 -1.85243,-1.76156c-0.17813,-0.83839 0.14599,-1.93271 -0.47623,-2.19044c-0.79187,-0.328 -1.65712,0 -2.59045,0l-0.93332,0l-0.85712,0"/>
  <path fill="none" stroke="#ff0000" stroke-width="2" stroke-dasharray="null" stroke-linejoin="null" stroke-linecap="null" id="svg_79" d="m250.22223,99.11111c0.56711,0.56711 1.25392,1.296 0.47021,1.33333c-0.8497,0.04048 -1.798,-0.23066 -2.47021,-0.66666c-0.79358,-0.51472 -1.63757,-0.42001 -2.51912,-0.68089c-0.83183,-0.24618 -0.88496,-1.17166 -1.62845,-1.36711c-0.97293,-0.25578 -1.47941,-0.89067 -2.32266,-1.29133c-0.75806,-0.36019 -1.04028,-1.36116 -1.52977,-1.96623c-0.56926,-0.70368 -0.66667,-1.46066 -0.66667,-2.40644c0,-0.92089 -0.15879,-1.78386 0.00599,-2.682c0.14968,-0.81582 1.11986,-0.64872 1.96622,-0.96712c0.81697,-0.30733 1.10547,-1.35323 1.82868,-1.82466c0.74411,-0.48504 1.64267,-0.81333 2.47177,-0.81422c0.91311,-0.00098 1.86206,0.19437 2.682,0c0.82468,-0.1955 1.47422,-0.8645 1.66401,-1.85245c0.16928,-0.88116 -0.7072,-1.5793 -1.11467,-1.96266c-0.70629,-0.66448 -1.49512,-1.30904 -2.292,-1.842c-0.70829,-0.47372 -1.6022,-0.93936 -1.82312,-1.70401c-0.29658,-1.02657 0.05626,-1.73275 -0.05555,-2.54644c-0.14905,-1.08461 -0.79996,-1.55249 -1.72733,-2.02222c-0.76622,-0.38811 -0.89477,-1.27778 -1.41556,-1.87978c-0.54795,-0.6334 -1.25111,-1.25111 -1.96823,-1.96822l-0.60087,-0.60267l-0.48445,-0.55888"/>
  <path fill="none" stroke-width="2" stroke-dasharray="null" stroke-linejoin="null" stroke-linecap="null" id="svg_80" d="m270.22223,111.11111c0.048,-0.84687 0.92734,-1.2654 1.28534,-2.11621c0.37381,-0.88833 0.04797,-2.05923 0.04797,-2.94736c0,-0.97829 0,-2.05923 0,-2.94738c0,-0.97827 -0.03198,-2.08423 0.47025,-2.83119c0.45636,-0.67875 0.84921,-1.65313 0.8631,-2.66663c0.01281,-0.93519 0,-1.93421 0,-2.86361c0,-0.88421 0,-1.83032 0,-2.95449c0,-1.00801 0,-2.04154 0,-3.07312c0,-0.88422 -0.23957,-1.98924 0.22222,-2.89825c0.37665,-0.74144 1.22312,-1.22709 2.05045,-1.22808c0.94156,-0.00112 1.94955,0 2.59155,0c0.85599,0 1.91266,0 2.74179,0c0.91309,0 1.83933,0 2.66666,0c0.91312,0 1.79187,-0.18626 2.42178,-0.73683c0.72361,-0.63245 1.57221,-0.73022 2.50556,-0.73684l0.9331,0l0.81977,0" stroke="#ff0000"/>
  <ellipse fill="#000000" stroke="#191919" stroke-width="4" stroke-dasharray="null" stroke-linejoin="null" stroke-linecap="null" cx="306.222222" cy="331.111111" id="svg_84" rx="14.666667" ry="12"/>
  <ellipse fill="#000000" stroke="#191919" stroke-dasharray="null" stroke-linejoin="null" stroke-linecap="null" cx="358.222222" cy="325.777778" id="svg_85" rx="16" ry="10.666667"/>
  <path fill="none" stroke-dasharray="null" stroke-linejoin="null" stroke-linecap="null" id="svg_89" d="m358.22223,337.77777c1.92355,0 2.66669,-0.00977 3.7742,0c0.80722,0.00711 1.75351,0.22397 2.31113,0.76624c0.6571,0.63903 0.63488,1.526 0.50509,2.44577c-0.15045,1.06616 -0.47146,1.83505 -0.78686,2.50222c-0.44336,0.93784 -1.27979,1.3458 -1.68979,2.17377c-0.37363,0.75452 -0.11377,1.66757 -0.11377,2.53156c0,0.82135 0,1.87579 0,2.64889c0,0.93155 0,1.8649 0,2.66489l0,1.01867" stroke="#191919"/>
  <path fill="none" stroke="#191919" stroke-dasharray="null" stroke-linejoin="null" stroke-linecap="null" id="svg_90" d="m295.55554,339.11111c-0.93933,0 -2.07748,-0.15713 -2.50464,0.59021c-0.37472,0.65565 -0.04568,1.86118 -0.17624,2.65778c-0.1502,0.91641 -1.0216,1.37009 -1.31912,2.30756c-0.21692,0.68353 -0.19116,1.9934 0.47025,2.36822c0.81469,0.46167 1.88269,0.02329 2.59042,0.55246c0.65216,0.48761 0.91534,1.38953 0.93933,2.32401c0.02249,0.8757 0.08563,1.85772 -0.05554,2.53311c-0.24085,1.15228 -0.89334,1.64645 -1.4769,2.11911c-0.82239,0.66611 -1.12222,1.48086 -1.13421,2.39999l0,0.88443l0,0.79291"/>
  <path fill="none" stroke="#191919" stroke-dasharray="null" stroke-linejoin="null" stroke-linecap="null" id="svg_91" d="m351.55554,335.11111c0.95468,0.11377 1.33032,0.8631 1.33335,1.80955c0.00271,0.85711 0,1.71423 0,2.63488c0,0.91669 0.12829,1.58762 -0.01423,2.70758c-0.11022,0.86615 -0.9465,1.31455 -1.3049,2.2631c-0.30358,0.80346 0.08332,1.77063 -0.58132,2.50311c-0.5373,0.59213 -0.84629,1.4194 -0.76621,2.16711c0.11176,1.04361 0.5238,1.73874 0.95465,2.49066c0.44715,0.78037 1.42618,0.61176 2.09067,1.13779c0.70352,0.55695 1.2258,1.55319 0.84091,2.39823c-0.34091,0.74847 -1.24658,1.19641 -1.88623,1.91577c-0.41824,0.47036 -0.94809,1.27344 -1.41867,2.1571c-0.435,0.81687 -0.87643,1.73889 -1.14844,2.29691l-0.38757,0.87466l-0.30243,0.96732l-0.07446,0.74112"/>
  <path fill="none" stroke="#191919" stroke-dasharray="null" stroke-linejoin="null" stroke-linecap="null" id="svg_92" d="m291.55554,343.11111c0.76624,0 1.71381,0 2.66669,0c0.85712,0 1.7142,-0.02856 2.66666,0c0.80108,0.02402 1.55545,0.44684 2.26666,0.8631c0.87295,0.51093 1.73245,0.58402 1.73334,1.40958c0.001,0.92731 0.00619,1.86069 0,2.66064c-0.00712,0.91922 -0.67563,1.42859 -1.22135,2.1138c-0.45074,0.56598 -0.95206,1.29093 -1.36911,2.21601c-0.31582,0.70053 -0.0762,1.79754 -0.0762,2.66064l0,0.77066l0.00598,1.0329"/>
  <path fill="none" stroke="#191919" stroke-dasharray="null" stroke-linejoin="null" stroke-linecap="null" id="svg_93" d="m356.88889,337.77777c0,0.95468 -0.29511,1.92355 -0.66666,2.66669c-0.28799,0.57599 -0.66669,1.62866 -0.66669,2.40176c0,0.90378 0,1.89356 0,2.66666c0,0.90378 -0.14813,1.93045 0.1138,2.66669c0.30597,0.86001 1.20081,1.47018 2.01956,1.58398c0.91871,0.12768 1.7836,0.29733 1.86487,1.08267c0.09589,0.92661 0.00177,1.8649 0.00177,2.66489l0,1.01867"/>
  <path fill="none" stroke="#191919" stroke-dasharray="null" stroke-linejoin="null" stroke-linecap="null" id="svg_94" d="m296.88889,343.11111c1.91467,0 2.7998,-0.00607 3.61956,0c0.96186,0.00712 1.82508,0.32798 2.51377,0.76621c0.7752,0.49329 1.83499,0.77866 1.78445,1.58267c-0.06326,1.00626 -0.58179,1.66855 -0.98624,2.33911c-0.4953,0.8212 -1.07394,1.42237 -1.73132,2.112c-0.62765,0.65845 -1.15851,1.45874 -1.20023,2.37156c-0.03784,0.82806 0.58133,1.46133 1.46668,1.79022l0.66666,0.47113l0.79821,0.45334"/>
  <path fill="none" stroke="#191919" stroke-dasharray="null" stroke-linejoin="null" stroke-linecap="null" id="svg_95" d="m351.55554,333.77777c-1.33331,2 -1.76956,2.89508 -2.19644,3.60001c-0.45914,0.75818 -0.32593,1.72024 -0.51822,2.54754c-0.19317,0.83106 -0.9093,1.43515 -1.5502,2.11911c-0.60974,0.6507 -1.0303,1.46436 -1.06845,2.40003c-0.03061,0.75137 0,1.71197 0,2.66064c0,0.82022 -0.33402,1.9704 0.29532,2.51068c0.59909,0.51432 1.9205,0.10279 2.33755,0.74332c0.51523,0.79132 1.06964,1.37012 1.36713,2.30756c0.25595,0.80658 0.1897,1.99774 -0.48224,2.36822c-0.94229,0.51956 -1.71533,0.07623 -2.57132,0.07623c-1.05667,0 -1.88577,0 -2.79889,0l-0.88446,0.07624l-0.59643,0.59042"/>
  <path fill="none" stroke="#191919" stroke-dasharray="null" stroke-linejoin="null" stroke-linecap="null" id="svg_96" d="m362.22223,333.77777c0.048,0.81424 0.40219,1.57919 0.95465,2.28622c0.62836,0.80417 0.96436,1.50568 1.33334,2.2898c0.38398,0.81598 0.37867,1.69775 0.37867,2.48355c0,1.05066 0.24054,1.91589 -0.01422,2.79288c-0.24344,0.83798 -1.26053,1.18792 -1.31733,1.88266c-0.08285,1.01352 -0.35333,2.22534 0.29334,2.76956c0.68194,0.57388 1.73266,0.18979 2.50467,0.45712l0.724,0.568"/>
  <path fill="none" stroke="#191919" stroke-dasharray="null" stroke-linejoin="null" stroke-linecap="null" id="svg_97" d="m303.55554,344.44446c0.93936,-1.32736 1.85245,-1.33335 2.77869,-1.33335c0.82733,0 2.01391,-0.5047 2.55289,0.11377c0.59246,0.67987 0.00177,1.86313 0.00177,2.52512c0,1.03732 0,1.94244 0,2.82754c0,0.8198 0,1.78156 0,2.66669c0,0.81977 0,1.78156 0,2.66666c0,0.81976 -0.64234,1.06738 -1.46643,1.49533c-0.69028,0.35846 -1.7042,1.41711 -1.20023,2.14932c0.35287,0.51267 1.62537,0.10169 2.26666,0.29846c1.00815,0.30933 1.73334,1.03489 2.48532,1.2909l0.54758,0.53332l0.504,0.69"/>
  <path fill="none" stroke="#191919" stroke-dasharray="null" stroke-linejoin="null" stroke-linecap="null" id="svg_98" d="m366.22223,333.77777c0.7662,0 1.71426,-0.03036 2.66666,0c0.75317,0.02402 1.31945,0.69415 1.33334,1.60001c0.01227,0.79989 0,1.73333 0,2.66665c0,0.80002 0,1.73334 0,2.66489c0,0.95645 0.19226,1.91647 -0.22223,2.62402c-0.38889,0.66379 -1.43637,1.5777 -0.88889,2.2222c0.52124,0.61362 1.08017,1.28445 1.80555,1.5278c0.85727,0.28757 1.90201,0.02777 2.66668,0.02777l0.90378,0l0.99222,0"/>
  <path fill="none" stroke="#191919" stroke-dasharray="null" stroke-linejoin="null" stroke-linecap="null" id="svg_99" d="m311.55554,344.44446c0.04801,0.7662 0.74445,1.23089 1.60001,1.71197c0.71835,0.40393 1.46603,0.88675 2.39999,0.95468c0.75156,0.05469 1.31946,0.66636 1.33335,1.62845c0.01336,0.92612 0,1.73267 0,2.63645c0,0.95465 0,1.76287 0,2.66665c0,0.95645 0,1.76288 0,2.66666c0,0.95645 0,1.76291 0,2.66668c0,0.95646 0,1.76288 0.00177,2.66666l0.22046,0.84622l0.84622,0.22046l0.90378,0.00177"/>
 </g>
</svg>